<svg width="41" height="50" viewBox="0 0 41 50" fill="none" xmlns="http://www.w3.org/2000/svg">
<path d="M7.85714 4.6875L6.55089 5.98633C5.37232 7.1582 4.71429 8.74023 4.71429 10.4004V23.3301C4.71429 24.375 5.23482 25.3516 6.10893 25.9277L7.15 26.6113C8.55446 27.5488 10.3616 27.6562 11.8741 26.9043L12.1884 26.748C12.4438 26.6211 12.6795 26.4746 12.9054 26.3086L17.7571 22.6953C18.4054 22.207 19.2991 22.207 19.9473 22.6953C20.9491 23.4473 20.9196 24.9512 19.8786 25.6543L7.30714 34.1797C5.68661 35.2832 4.71429 37.1094 4.71429 39.0625H36.1429L38.9812 23.5352C39.1875 22.4316 39.2857 21.3086 39.2857 20.1855V18.75C39.2857 8.39844 30.8393 0 20.4286 0H6.65893C5.58839 0 4.71429 0.869141 4.71429 1.93359C4.71429 2.66602 5.12679 3.33008 5.78482 3.66211L7.85714 4.6875ZM10.2143 11.3281C10.2143 10.8101 10.4212 10.3133 10.7896 9.94706C11.158 9.58078 11.6576 9.375 12.1786 9.375C12.6995 9.375 13.1992 9.58078 13.5675 9.94706C13.9359 10.3133 14.1429 10.8101 14.1429 11.3281C14.1429 11.8461 13.9359 12.3429 13.5675 12.7092C13.1992 13.0755 12.6995 13.2812 12.1786 13.2812C11.6576 13.2812 11.158 13.0755 10.7896 12.7092C10.4212 12.3429 10.2143 11.8461 10.2143 11.3281ZM0.648214 46.2305C0.235714 46.6406 0 47.207 0 47.793C0 49.0137 0.991964 50 2.21964 50H38.6375C39.8652 50 40.8571 49.0137 40.8571 47.793C40.8571 47.207 40.6214 46.6406 40.2089 46.2305L36.1429 42.1875H4.71429L0.648214 46.2305Z" fill="#373737"/>
</svg>
